<?xml version="1.0" encoding="utf-8"?>
<!-- Generator: Adobe Illustrator 19.0.0, SVG Export Plug-In . SVG Version: 6.00 Build 0)  -->
<svg version="1.1"
	 id="Layer_1" xmlns:cc="http://creativecommons.org/ns#" xmlns:dc="http://purl.org/dc/elements/1.1/" xmlns:inkscape="http://www.inkscape.org/namespaces/inkscape" xmlns:rdf="http://www.w3.org/1999/02/22-rdf-syntax-ns#" xmlns:svg="http://www.w3.org/2000/svg" xmlns:sodipodi="http://sodipodi.sourceforge.net/DTD/sodipodi-0.dtd"
	 xmlns="http://www.w3.org/2000/svg" xmlns:xlink="http://www.w3.org/1999/xlink" x="0px" y="0px" viewBox="187 377 40 40"
	 style="enable-background:new 187 377 40 40;" xml:space="preserve">
<style type="text/css">
	.st0{fill:#00ABF1;}
	.st1{fill:#FFFFFF;}
</style>
<g id="g3763">
	<path id="rect2987" class="st0" d="M192,377h30c2.8,0,5,2.2,5,5v30c0,2.8-2.2,5-5,5h-30c-2.8,0-5-2.2-5-5v-30
		C187,379.2,189.2,377,192,377z"/>
	<g id="layer1_2_" transform="matrix(1.418485,0,0,1.418485,-507.62367,-651.3318)">
		<path id="path5_1_" class="st1" d="M514.8,732.2c-0.8,0.4-1.7,0.6-2.6,0.7c0.9-0.6,1.6-1.4,2-2.5c-0.9,0.5-1.8,0.9-2.9,1.1
			c-0.8-0.9-2-1.4-3.3-1.4c-2.5,0-4.5,2-4.5,4.5c0,0.4,0,0.7,0.1,1c-3.8-0.2-7.1-2-9.3-4.7c-0.4,0.7-0.6,1.4-0.6,2.3
			c0,1.6,0.8,3,2,3.8c-0.7,0-1.4-0.2-2-0.6c0,0,0,0,0,0.1c0,2.2,1.6,4,3.6,4.4c-0.4,0.1-0.8,0.2-1.2,0.2c-0.3,0-0.6,0-0.9-0.1
			c0.6,1.8,2.2,3.1,4.2,3.1c-1.5,1.2-3.5,1.9-5.6,1.9c-0.4,0-0.7,0-1.1-0.1c2,1.3,4.4,2,6.9,2c8.3,0,12.9-6.9,12.9-12.9
			c0-0.2,0-0.4,0-0.6C513.4,733.9,514.2,733.1,514.8,732.2L514.8,732.2L514.8,732.2z"/>
	</g>
</g>
</svg>
