<?xml version="1.0" encoding="utf-8"?>
<!-- Generator: Adobe Illustrator 19.1.0, SVG Export Plug-In . SVG Version: 6.00 Build 0)  -->
<svg version="1.1"
	 id="Layer_1" xmlns:cc="http://creativecommons.org/ns#" xmlns:svg="http://www.w3.org/2000/svg" xmlns:dc="http://purl.org/dc/elements/1.1/" xmlns:sodipodi="http://sodipodi.sourceforge.net/DTD/sodipodi-0.dtd" xmlns:rdf="http://www.w3.org/1999/02/22-rdf-syntax-ns#" xmlns:inkscape="http://www.inkscape.org/namespaces/inkscape"
	 xmlns="http://www.w3.org/2000/svg" xmlns:xlink="http://www.w3.org/1999/xlink" x="0px" y="0px" viewBox="195 385 24 24"
	 style="enable-background:new 195 385 24 24;" xml:space="preserve">
<style type="text/css">
	.st0{fill:#017BBE;}
	.st1{fill:#FFFFFF;}
</style>
<g id="g3021">
</g>
<g id="Layer_1_1_">
</g>
<g id="Layer_1_1_-7" transform="translate(-819.672,-61.929991)">
</g>
<g id="g2995">
	<path id="rect2989" class="st0" d="M215.7,409h-17.4c-1.8,0-3.3-1.5-3.3-3.3v-17.4c0-1.8,1.5-3.3,3.3-3.3h17.4
		c1.8,0,3.3,1.5,3.3,3.3v17.4C219,407.5,217.5,409,215.7,409z"/>
	<g id="g2987" transform="matrix(1.2026312,0,0,1.2026312,-54.384104,-52.796039)">
		<rect id="rect3163" x="210.5" y="371.5" class="st1" width="3" height="9.2"/>
		<path id="path3165" class="st1" d="M212,370.2c0.8,0,1.5-0.7,1.5-1.5c0-0.8-0.7-1.5-1.5-1.5c-0.8,0-1.5,0.7-1.5,1.5
			C210.6,369.5,211.2,370.2,212,370.2z"/>
		<path id="path3167" class="st1" d="M224.2,375.7c0-0.5,0.1-2.1-1.1-3.2c-0.6-0.6-0.9-0.9-2.4-0.9c-1.2,0-2.3,0.8-2.7,1.4v-1.4h-3
			v9.1h3c0,0,0-4.2,0-5.2c0-0.8,0.4-1.5,1.5-1.5c1.1,0,1.7,0.9,1.7,1.8v4.9h3L224.2,375.7L224.2,375.7L224.2,375.7z"/>
	</g>
</g>
</svg>
