<?xml version="1.0" encoding="utf-8"?>
<!-- Generator: Adobe Illustrator 19.1.0, SVG Export Plug-In . SVG Version: 6.00 Build 0)  -->
<svg version="1.1" id="Layer_1" xmlns="http://www.w3.org/2000/svg" xmlns:xlink="http://www.w3.org/1999/xlink" x="0px" y="0px"
	 viewBox="-49 141 384.1 384.2" style="enable-background:new -49 141 384.1 384.2;" xml:space="preserve">
<style type="text/css">
	.st0{fill:#FFFFFF;}
</style>
<path class="st0" d="M324.6,463.7L194,333.1l130.6-130.6c14.1-14.1,14.1-36.8,0-50.9c-14.1-14.1-36.8-14.1-50.9,0L143.1,282.2
	L12.5,151.6c-14.1-14.1-36.8-14.1-50.9,0c-14.1,14.1-14.1,36.8,0,50.9L92.2,333.1L-38.4,463.7c-14.1,14.1-14.1,36.8,0,50.9
	c14.1,14.1,36.8,14.1,50.9,0L143.1,384l130.6,130.6c14.1,14.1,36.8,14.1,50.9,0C338.6,500.5,338.6,477.7,324.6,463.7z"/>
</svg>
