<?xml version="1.0" encoding="utf-8"?>
<!-- Generator: Adobe Illustrator 19.1.0, SVG Export Plug-In . SVG Version: 6.00 Build 0)  -->
<svg version="1.1" id="Layer_1" xmlns="http://www.w3.org/2000/svg" xmlns:xlink="http://www.w3.org/1999/xlink" x="0px" y="0px"
	 viewBox="0 0 24 24" style="enable-background:new 0 0 24 24;" xml:space="preserve">
<style type="text/css">
	.st0{fill:#FFFFFF;}
</style>
<g>
	<polygon class="st0" points="0.1,12.6 0.1,13.5 3.7,13.5 3.9,12.6 	"/>
	<polygon class="st0" points="0.1,17.3 2.7,17.3 3,16.4 0.1,16.4 	"/>
	<polygon class="st0" points="4.9,8.8 0.1,8.8 0.1,9.7 4.6,9.7 	"/>
	<path class="st0" d="M23.7,4.6C23.4,4.2,23,4,22.4,4H9.1c-1,0-2,0.8-2.2,1.8L6.6,6.9h16.9L23.8,6C23.9,5.5,24,5,23.7,4.6z"/>
	<path class="st0" d="M4.1,18.2c-0.1,0.5,0,1,0.3,1.4c0.3,0.4,0.8,0.6,1.3,0.6h13.4c1,0,2-0.8,2.2-1.8l2.3-10.6H6.4L4.1,18.2z
		 M7.8,12.9l0.8-3.3c0.1-0.2,0.2-0.4,0.5-0.4h11.3c0.1,0,0.3,0.1,0.4,0.2c0.1,0.1,0.1,0.3,0.1,0.4L20,13.2c-0.1,0.2-0.2,0.4-0.5,0.4
		H8.3c-0.1,0-0.3-0.1-0.4-0.2C7.8,13.2,7.8,13.1,7.8,12.9z"/>
	<polygon class="st0" points="19.7,10.2 9.5,10.2 8.9,12.6 19.2,12.6 	"/>
</g>
</svg>
