<?xml version="1.0" encoding="utf-8"?>
<!-- Generator: Adobe Illustrator 19.0.0, SVG Export Plug-In . SVG Version: 6.00 Build 0)  -->
<svg version="1.1"
	 id="Layer_1" xmlns:cc="http://creativecommons.org/ns#" xmlns:dc="http://purl.org/dc/elements/1.1/" xmlns:inkscape="http://www.inkscape.org/namespaces/inkscape" xmlns:rdf="http://www.w3.org/1999/02/22-rdf-syntax-ns#" xmlns:svg="http://www.w3.org/2000/svg" xmlns:sodipodi="http://sodipodi.sourceforge.net/DTD/sodipodi-0.dtd"
	 xmlns="http://www.w3.org/2000/svg" xmlns:xlink="http://www.w3.org/1999/xlink" x="0px" y="0px" viewBox="187 377 40 40"
	 style="enable-background:new 187 377 40 40;" xml:space="preserve">
<style type="text/css">
	.st0{fill:#3B5998;}
	.st1{fill:#FFFFFF;}
</style>
<g id="g5991">
	<path id="rect2987" class="st0" d="M192,377h30c2.8,0,5,2.2,5,5v30c0,2.8-2.2,5-5,5h-30c-2.8,0-5-2.2-5-5v-30
		C187,379.2,189.2,377,192,377z"/>
	<path id="f_1_" class="st1" d="M209.4,412.6v-14.3h4.8l0.7-5.6h-5.5v-3.5c0-1.6,0.4-2.7,2.8-2.7l2.9,0v-5c-0.5-0.1-2.3-0.2-4.3-0.2
		c-4.2,0-7.1,2.6-7.1,7.3v4.1h-4.8v5.6h4.8v14.3L209.4,412.6L209.4,412.6z"/>
</g>
</svg>
