<?xml version="1.0" encoding="utf-8"?>
<!-- Generator: Adobe Illustrator 18.1.1, SVG Export Plug-In . SVG Version: 6.00 Build 0)  -->
<svg version="1.1" id="Layer_1" xmlns="http://www.w3.org/2000/svg" xmlns:xlink="http://www.w3.org/1999/xlink" x="0px" y="0px"
	 viewBox="0 0 172.6 89.2" enable-background="new 0 0 172.6 89.2" xml:space="preserve">
<g>
	<g>
		<g>
			<path fill="#69BD45" d="M36.3,78.7V43c0-0.5,0.2-0.8,0.7-1.2c0.5-0.3,1-0.5,1.5-0.5c0.6,0,1.1,0.2,1.6,0.5
				c0.5,0.3,0.7,0.7,0.7,1.1v13.6h8.8c0.5,0,0.8,0.2,1.1,0.6c0.3,0.4,0.4,0.8,0.4,1.3c0,0.5-0.1,0.9-0.4,1.3
				c-0.3,0.4-0.7,0.6-1.1,0.6h-8.8v18.3c0,2.2,0.5,3.7,1.4,4.6c0.9,0.9,2.6,1.3,4.9,1.3h1.9c0.6,0,1.1,0.2,1.5,0.6
				c0.4,0.4,0.6,0.9,0.6,1.4c0,0.6-0.2,1.1-0.6,1.5c-0.4,0.4-0.9,0.6-1.5,0.6H47C39.9,88.7,36.3,85.4,36.3,78.7z"/>
			<path fill="#69BD45" d="M57.7,80.2c0-3.6,1.3-6,4-7.4c2.7-1.4,6.6-2.1,11.8-2.1H77v-1.6c0-2.4-0.7-4.6-2-6.4
				c-1.3-1.8-3.3-2.7-6-2.7c-1.8,0-3.5,0.3-4.9,1c-1.5,0.6-2.3,1-2.3,1c-0.5,0-1-0.2-1.3-0.7c-0.3-0.5-0.5-1-0.5-1.6
				c0-0.9,1-1.7,2.9-2.4c1.9-0.7,4-1.1,6.2-1.1c4.3,0,7.4,1.2,9.3,3.7c2,2.5,3,5.6,3,9.4v17.6c0,0.5-0.2,0.9-0.6,1.3
				c-0.4,0.3-0.9,0.5-1.6,0.5c-0.6,0-1.1-0.2-1.5-0.5c-0.4-0.3-0.6-0.8-0.6-1.3v-3c-3,3.5-6.4,5.2-10.2,5.2c-2.7,0-4.9-0.8-6.7-2.3
				C58.6,85.4,57.7,83.1,57.7,80.2z M62.1,79.8c0,1.9,0.5,3.3,1.6,4.2c1.1,0.9,2.5,1.4,4.3,1.4c2.1,0,4.2-0.8,6.1-2.4
				c1.9-1.6,2.9-3.2,2.9-4.7V74h-2.9c-1.8,0-3.3,0.1-4.6,0.2c-1.2,0.1-2.5,0.4-3.7,0.7c-1.2,0.4-2.1,0.9-2.8,1.8
				C62.5,77.5,62.1,78.5,62.1,79.8z"/>
			<path fill="#69BD45" d="M89.7,76.3V69c0-3.8,1.1-6.9,3.3-9.3c2.2-2.4,5.5-3.6,9.8-3.6c2.7,0,5,0.5,6.8,1.5c1.8,1,2.7,2,2.7,3
				c0,0.5-0.2,1-0.6,1.5c-0.4,0.5-0.9,0.7-1.4,0.7c-0.3,0-0.7-0.2-1.3-0.6c-0.6-0.4-1.4-0.8-2.4-1.2c-1-0.4-2.3-0.6-3.7-0.6
				c-2.9,0-5.1,0.8-6.6,2.3c-1.5,1.5-2.3,3.7-2.3,6.4v7.2c0,2.8,0.8,5,2.3,6.5c1.5,1.5,3.7,2.3,6.7,2.3c1.5,0,2.8-0.2,3.9-0.6
				c1.1-0.4,1.9-0.8,2.4-1.3c0.6-0.4,1-0.6,1.3-0.6c0.6,0,1.1,0.2,1.5,0.7c0.4,0.5,0.6,1,0.6,1.5c0,1-0.9,2-2.8,3
				c-1.9,1-4.3,1.5-7.1,1.5c-4.3,0-7.6-1.2-9.8-3.5C90.8,83.3,89.7,80.2,89.7,76.3z"/>
			<path fill="#69BD45" d="M119.8,86.9V38.5c0-0.5,0.2-0.8,0.6-1.2c0.4-0.3,0.9-0.5,1.6-0.5c0.6,0,1.2,0.2,1.6,0.5
				c0.4,0.3,0.6,0.7,0.6,1.2v33l16.6-14.7c0.5-0.3,0.8-0.4,1-0.4c0.5,0,1.1,0.2,1.5,0.6c0.5,0.4,0.7,0.9,0.7,1.5
				c0,0.5-0.2,0.9-0.5,1.2l-10,8.8l11.7,17.2c0.2,0.4,0.3,0.7,0.3,0.9c0,0.5-0.2,1-0.7,1.5c-0.5,0.5-1,0.7-1.6,0.7
				c-0.5,0-1-0.3-1.4-0.8l-11.4-16.8l-6.2,5.5v10.1c0,0.5-0.2,0.9-0.6,1.2c-0.4,0.4-1,0.5-1.6,0.5c-0.6,0-1.1-0.2-1.5-0.5
				C120.1,87.8,119.8,87.4,119.8,86.9z"/>
			<path fill="#69BD45" d="M151,84.3c0-0.5,0.2-0.9,0.5-1.4c0.3-0.5,0.7-0.7,1.1-0.7c0.3,0,0.8,0.3,1.5,0.8c0.7,0.5,1.7,1.1,2.9,1.6
				c1.3,0.5,2.8,0.8,4.5,0.8c2.4,0,4.2-0.5,5.3-1.4c1.1-0.9,1.7-2.1,1.7-3.5c0-1.6-0.6-2.9-1.7-3.9c-1.2-1-2.5-1.7-4.2-2.2
				c-1.6-0.5-3.3-1-4.9-1.5c-1.7-0.5-3.1-1.4-4.2-2.6c-1.2-1.2-1.7-2.9-1.7-5c0-2.5,0.9-4.6,2.7-6.5c1.8-1.8,4.5-2.7,8-2.7
				c2.2,0,4.3,0.4,6.2,1.1c1.9,0.7,2.9,1.5,2.9,2.3c0,0.5-0.2,0.9-0.5,1.5c-0.4,0.5-0.8,0.8-1.3,0.8c-0.1,0-1-0.3-2.5-0.9
				c-1.5-0.6-3.1-1-4.7-1c-2.3,0-4,0.5-5.1,1.6c-1.1,1.1-1.7,2.3-1.7,3.6c0,1.4,0.6,2.5,1.8,3.3c1.2,0.8,2.6,1.4,4.2,1.9
				c1.6,0.5,3.3,1,5,1.5s3.1,1.5,4.2,3c1.1,1.5,1.7,3.4,1.7,5.7c0,2.7-1,4.9-2.9,6.4c-1.9,1.6-4.6,2.3-8,2.3c-3,0-5.5-0.5-7.6-1.6
				C152,86.5,151,85.4,151,84.3z"/>
		</g>
		<g>
			<path fill="#69BD45" d="M0,82.7c0-0.5,0.2-1,0.6-1.5c0.4-0.5,0.8-0.8,1.2-0.8c0.3,0,0.7,0.3,1.2,0.8L4.7,83
				c0.6,0.6,1.5,1.2,2.9,1.7c1.3,0.5,2.8,0.8,4.5,0.8c2.8,0,5-0.7,6.6-2.1c1.6-1.4,2.3-3.5,2.3-6.1c0-1.8-0.4-3.3-1.1-4.6
				c-0.7-1.3-1.7-2.2-2.8-2.9c-1.1-0.7-2.4-1.4-3.8-1.9l-4.3-1.7c-1.4-0.6-2.7-1.2-3.9-2c-1.1-0.8-2.1-1.9-2.8-3.3
				c-0.7-1.4-1.1-3.1-1.1-5.1c0-2.1,0.4-3.9,1.2-5.4c0.8-1.5,1.8-2.6,3.1-3.4c1.3-0.8,2.7-1.3,4-1.7c1.4-0.3,2.8-0.5,4.4-0.5
				c2.4,0,4.7,0.4,6.9,1c2.1,0.7,3.2,1.6,3.2,2.6c0,0.5-0.2,1-0.5,1.5c-0.3,0.5-0.8,0.8-1.2,0.8c-0.2,0-0.7-0.2-1.4-0.6
				c-0.7-0.4-1.6-0.7-2.9-1.1c-1.2-0.4-2.6-0.6-4.2-0.6c-2.5,0-4.6,0.5-6.2,1.6C5.9,51.1,5,52.8,5,55.3c0,1.7,0.5,3.2,1.5,4.3
				c1,1.2,2.2,2,3.7,2.5c1.5,0.5,3.1,1.1,4.8,1.9c1.7,0.7,3.3,1.5,4.8,2.3c1.5,0.8,2.7,2.1,3.7,3.9c1,1.8,1.5,4,1.5,6.6
				c0,4.1-1.1,7.2-3.4,9.2c-2.3,2.1-5.4,3.1-9.2,3.1c-3.5,0-6.4-0.7-8.8-2.2C1.2,85.4,0,84,0,82.7z"/>
		</g>
		<path fill="#69BD45" d="M38.4,78.6V60.3h-8.8c-0.5,0-0.8-0.2-1.1-0.6c-0.3-0.4-0.4-0.8-0.4-1.3c0-0.5,0.1-0.9,0.4-1.3
			c0.3-0.4,0.7-0.6,1.1-0.6h8.8V43"/>
	</g>
	<g>
		<g>
			<path fill="#9D9D9D" d="M81.4,49.2c-0.1,0-0.2,0-0.3-0.1L51.3,38c0,0-0.1,0-0.1-0.1c-0.5-0.3-1-0.7-1.3-1.2
				c-0.6-0.8-0.9-1.8-0.9-3c0-1.2,0.3-2.2,0.9-3.1c0,0,0,0,0,0c0-0.1,0.1-0.1,0.1-0.2c0-0.1-0.1-0.1-0.1-0.2c-0.6-0.8-0.9-1.8-0.9-3
				c0-1.2,0.3-2.2,0.9-3.1c0,0,0,0,0,0c0-0.1,0.1-0.1,0.1-0.2c0-0.1-0.1-0.1-0.1-0.2c-0.6-0.8-0.9-1.8-0.9-3c0-1.2,0.3-2.2,0.9-3.1
				c0,0,0,0,0,0c0.3-0.5,0.8-0.8,1.3-1c0,0,0.1,0,0.1,0c0.1-0.1,0.1-0.1,0.2-0.2L81,0.1C81.2,0,81.4,0,81.7,0c0.2,0,0.4,0,0.6,0.1
				l28.8,12.3c0.3,0.1,0.6,0.5,0.6,0.8s-0.2,0.7-0.5,0.9L82.3,29.4c-0.2,0.1-0.4,0.1-0.7,0.1c-0.2,0-0.4,0-0.5,0l-29.5-11
				c0,0,0,0,0,0c-0.1,0.1-0.1,0.1-0.2,0.2c-0.4,0.5-0.5,1.2-0.5,2c0,0.8,0.2,1.4,0.5,1.9c0,0,0,0,0,0c0.1,0.1,0.2,0.3,0.3,0.4
				c0.1,0,0.2,0.1,0.4,0.1l29.5,11l28.8-15.8v-1.5c0-0.5,0.4-1,1-1c0.5,0,1,0.4,1,1v1.7c0,0.1,0,0.1,0,0.2c0.1,0.4-0.1,0.8-0.5,1
				L82.3,35.9c-0.2,0.1-0.5,0.1-0.7,0.1c-0.2,0-0.4,0-0.5,0L51.6,25c-0.1,0.1-0.1,0.1-0.2,0.2c-0.4,0.5-0.5,1.2-0.5,2
				c0,0.8,0.2,1.4,0.5,1.9c0,0,0,0,0,0c0.1,0.1,0.2,0.3,0.3,0.4c0.2,0,0.3,0.1,0.5,0.3l29.4,11l28.8-15.8v-1.1c0-0.5,0.4-1,1-1
				c0.5,0,1,0.4,1,1v1.7c0,0.3-0.2,0.7-0.5,0.8L82.3,42.5c-0.2,0.1-0.5,0.1-0.7,0.1c-0.2,0-0.4,0-0.5,0l-29.6-11
				c0,0-0.1,0.1-0.1,0.1c-0.4,0.5-0.5,1.2-0.5,2c0,0.8,0.2,1.4,0.5,1.9c0.2,0.3,0.4,0.5,0.6,0.6l29.6,11l28.8-15.8v-1.1
				c0-0.5,0.4-1,1-1c0.5,0,1,0.4,1,1V32c0,0.3-0.2,0.7-0.5,0.8L82.3,49c-0.2,0.1-0.5,0.1-0.7,0.1C81.6,49.2,81.5,49.2,81.4,49.2z
				 M53.7,17.3l27.9,10.4l26.9-14.2L81.7,1.9L53.7,17.3z M81,24.7c-0.1,0-0.2,0-0.3-0.1l-6.2-2.3c-0.5-0.2-0.7-0.7-0.6-1.2
				c0.2-0.5,0.7-0.7,1.2-0.6l6.2,2.3c0.5,0.2,0.7,0.7,0.6,1.2C81.7,24.5,81.4,24.7,81,24.7z M93.1,16.9c-0.1,0-0.3,0-0.4-0.1
				l-15.1-6.5c-0.5-0.2-0.7-0.8-0.5-1.3c0.2-0.5,0.8-0.7,1.3-0.5L93.5,15c0.5,0.2,0.7,0.8,0.5,1.3C93.9,16.6,93.5,16.9,93.1,16.9z
				 M96.5,14c-0.1,0-0.3,0-0.4-0.1L81.1,7.5c-0.5-0.2-0.7-0.8-0.5-1.3c0.2-0.5,0.8-0.7,1.3-0.5l15.1,6.5c0.5,0.2,0.7,0.8,0.5,1.3
				C97.3,13.8,96.9,14,96.5,14z"/>
		</g>
	</g>
</g>
</svg>
